<svg viewBox="-2 -1 30 31" width="1024" height="1024" xmlns="http://www.w3.org/2000/svg" version="1.1">
	<defs>
		<filter id="shadow" x="-50%" y="-50%" width="200%" height="200%">
			<feGaussianBlur in="SourceGraphic" stdDeviation="1" />
		</filter>
		<clipPath id="icon-circle">
			<ellipse cx="12.763" cy="12.783" rx="12.691" ry="12.711"></ellipse>
		</clipPath>
	</defs>
	<ellipse cx="12.763" cy="13.283" fill="#000" rx="12.691" ry="12.711" filter="url(#shadow)" opacity=".2"></ellipse>
	<g fill="none" clip-path="url(#icon-circle)">
		<path d="M16.801.722C15.503.289 14.133 0 12.763 0 5.696 0 0 5.706 0 12.783v.072C.072 5.849 5.769.144 12.763.144c1.442 0 2.74.217 4.038.65a12.624 12.624 0 0 1 8.653 11.989v-.072A12.624 12.624 0 0 0 16.801.722z" fill="#fff" opacity=".4"></path>
		<g>
			<ellipse cx="12.763" cy="12.783" fill="#1A73E8" rx="12.691" ry="12.711"></ellipse>
			<path d="M17.378 7.583H5.192c-.505 0-.721.433-.433.867l1.586 2.744v4.911c0 1.228.937 2.311 2.163 2.311h8.797c1.226 0 2.307-1.083 2.307-2.311V9.894c.072-1.3-1.01-2.311-2.235-2.311z" fill="#000" transform="translate(0,0.5)" filter="url(#shadow)" opacity=".2"></path>
			<path d="M17.378 7.583H5.192c-.505 0-.721.433-.433.867l1.586 2.744v4.911c0 1.228.937 2.311 2.163 2.311h8.797c1.226 0 2.307-1.083 2.307-2.311V9.894c.072-1.3-1.01-2.311-2.235-2.311z" fill="#fff"></path>
			<path d="M17.234 11.05H8.869c-.361 0-.721-.217-.721-.578s.361-.578.721-.578h8.365c.361 0 .721.217.721.578s-.361.578-.721.578zm0 2.311H8.869c-.361 0-.721-.217-.721-.578s.361-.578.721-.578h8.365c.361 0 .721.217.721.578s-.361.578-.721.578zm-2.307 2.311H8.87c-.361 0-.721-.217-.721-.578s.361-.578.721-.578h6.057c.361 0 .721.217.721.578s-.361.578-.721.578z" fill="#8AB4F8"></path>
		</g>
	</g>
</svg>
